<?xml version="1.0" standalone="no"?>
<svg version="1.1" id="Layer_1" xmlns="http://www.w3.org/2000/svg" xmlns:xlink="http://www.w3.org/1999/xlink" x="0px" y="0px" viewBox="0 0 595.3 595.3" enable-background="new 0 0 595.3 595.3" xml:space="preserve">
<path id="color_x5F_8" fill="#ECEFF1" d="M128.6,193.9h51.3l15.2,12.7l-4.1-12.7h0.3c2.7,0,4.9-2.2,4.9-4.9v-38.8
	c0-2.7-2.2-4.9-4.9-4.9h-50.1h-1h-11.6c-2.7,0-4.9,2.2-4.9,4.9V189C123.8,191.7,125.9,193.9,128.6,193.9z M149.1,158.5
	c0.8-0.2,1.7-0.2,2.6-0.1c1.4,0.1,2.9,0.6,4.1,1.4c0.5,0.3,2,1.6,2.7,2.3c0,0,0.1,0,0.1,0.1c0,0,0.1,0,0.1-0.1
	c0.8-0.7,2.2-2,2.7-2.3c1.2-0.8,2.6-1.3,4.1-1.4c0.9-0.1,1.8-0.1,2.6,0.1c4.8,1.1,4.7,6.8,3,10.8c-1.2,2.8-2.9,5.3-4.8,7.5
	c-1.1,1.3-6.2,5.9-7.6,7.3c-1.5-1.5-6.5-6-7.6-7.3c-1.9-2.2-3.7-4.8-4.8-7.5C144.4,165.4,144.2,159.7,149.1,158.5z M385.8,189v-38.8
	c0-2.7-2.2-4.9-4.9-4.9h-62.7c-0.8,0-1.6,0.2-2.2,0.6c-0.4,0.2-0.8,0.5-1.1,0.8c-0.9,0.9-1.5,2.1-1.5,3.5V189c0,2.7,2.2,4.9,4.9,4.9
	h51.3l15.2,12.7l-4.1-12.7h0.3C383.6,193.9,385.8,191.7,385.8,189z M339.9,184.6h-8.5v-16.1h8.5V184.6z M368.3,170.4
	c-0.3,1.2-1.4,2.5-2.6,2.5c0.9,0.7,1.3,1.9,1.1,3c-0.2,1.1-0.9,2.4-2,2.8c1,1.7,1,5.1-0.8,5.7c-7.3,2.2-15.4-0.2-23-0.2V170
	c5-3.9,7.9-10.7,7.1-17c2.4,0.4,4.1,2.7,4.5,5.1s0,4.8,0,7.2c0,0.1,0,0.2,0,0.2c3.4-1.1,8-2.8,11.5-2.4c1,0.1,2.1,0.3,2.8,1.1
	s1,2.7,0,3C368,167.9,368.6,169.2,368.3,170.4z M128.6,193.9h51.3l15.2,12.7l-4.1-12.7h0.3c2.7,0,4.9-2.2,4.9-4.9v-38.8
	c0-2.7-2.2-4.9-4.9-4.9h-50.1h-1h-11.6c-2.7,0-4.9,2.2-4.9,4.9V189C123.8,191.7,125.9,193.9,128.6,193.9z M149.1,158.5
	c0.8-0.2,1.7-0.2,2.6-0.1c1.4,0.1,2.9,0.6,4.1,1.4c0.5,0.3,2,1.6,2.7,2.3c0,0,0.1,0,0.1,0.1c0,0,0.1,0,0.1-0.1
	c0.8-0.7,2.2-2,2.7-2.3c1.2-0.8,2.6-1.3,4.1-1.4c0.9-0.1,1.8-0.1,2.6,0.1c4.8,1.1,4.7,6.8,3,10.8c-1.2,2.8-2.9,5.3-4.8,7.5
	c-1.1,1.3-6.2,5.9-7.6,7.3c-1.5-1.5-6.5-6-7.6-7.3c-1.9-2.2-3.7-4.8-4.8-7.5C144.4,165.4,144.2,159.7,149.1,158.5z M385.8,189v-38.8
	c0-2.7-2.2-4.9-4.9-4.9h-62.7c-0.8,0-1.6,0.2-2.2,0.6c-0.4,0.2-0.8,0.5-1.1,0.8c-0.9,0.9-1.5,2.1-1.5,3.5V189c0,2.7,2.2,4.9,4.9,4.9
	h51.3l15.2,12.7l-4.1-12.7h0.3C383.6,193.9,385.8,191.7,385.8,189z M339.9,184.6h-8.5v-16.1h8.5V184.6z M368.3,170.4
	c-0.3,1.2-1.4,2.5-2.6,2.5c0.9,0.7,1.3,1.9,1.1,3c-0.2,1.1-0.9,2.4-2,2.8c1,1.7,1,5.1-0.8,5.7c-7.3,2.2-15.4-0.2-23-0.2V170
	c5-3.9,7.9-10.7,7.1-17c2.4,0.4,4.1,2.7,4.5,5.1s0,4.8,0,7.2c0,0.1,0,0.2,0,0.2c3.4-1.1,8-2.8,11.5-2.4c1,0.1,2.1,0.3,2.8,1.1
	s1,2.7,0,3C368,167.9,368.6,169.2,368.3,170.4z"></path>
<path id="color_x5F_7" fill="#263238" d="M255.6,309.4c-1.2,4.9-1.9,9.8-2.1,14.8h7c6.1,0,11-4.9,11-11v-23c0-4.5-2.7-8.4-6.5-10.1
	c-0.1,0.8-0.3,1.4-0.5,2C261.8,291.3,257.8,300.1,255.6,309.4z M221.6,182.5c0.6,0,1.1-0.5,1.1-1.1c0-0.5,0.1-0.9,0.3-1.3
	c0.5-1.4,1.9-2.5,3.6-2.5h10.6c3.7,0,6.7,3,6.7,6.7v1.2v22.8c-2.8,0.3-4.9,2.6-4.9,5.5c0,1,0.3,2,0.8,2.8c0.4,0.6,0.9,1.2,1.5,1.6
	l-0.9,1.6c-3.1,5.2-8,9.2-13.8,11c-0.6,0.2-0.9,0.8-0.7,1.4c0.2,0.5,0.6,0.8,1.1,0.8c0.1,0,0.2,0,0.3-0.1c6.3-2,11.6-6.3,15-12
	l1-1.8c0.4,0.1,0.8,0.2,1.3,0.2c1.3,0,2.4-0.4,3.4-1.1c0.4-0.3,0.7-0.6,1-1c0.7-0.9,1.1-2.1,1.1-3.4c0-0.6-0.1-1.1-0.2-1.6
	c-0.5-1.8-1.9-3.2-3.7-3.7v-19.4v-4.8c0-4.9-4-9-9-9h-10.6c-3.1,0-5.7,2.4-6,5.4c0,0.2,0,0.4,0,0.7C220.5,182,221,182.5,221.6,182.5
	z M532.4,498.4H516h-9.1h-3.3h-5.2h-3.3h-4.7h-0.3V487v-25.4v-2.2v-28.6v-48.6v-1.7v-41c0-0.9-0.1-1.7-0.2-2.4h-2.3
	c-0.1,0.7-0.2,1.5-0.2,2.4V386v1.6v55.6v54.5v0.7h-0.1h-5.9h-3h-7.2H468h-1.1h-3.2h-2.6h-2.9c-0.1-3.9-2.3-7.3-5.4-9.2
	c-1.6-0.9-3.4-1.4-5.4-1.4H447h-14.6v-32.5v-1v-59.5h21.8c5.8,0,10.4-4.7,10.4-10.4s-4.7-10.4-10.4-10.4h-11.6
	c-2.9,3.1-6.3,5.8-10.2,7.7v-30.3v-11.8c0-0.9-0.1-1.7-0.2-2.4h-2.3c-0.1,0.7-0.2,1.5-0.2,2.4v12.2v31.1c-1.9,0.8-4,1.4-6.1,1.8
	c-9.5,1.9-19.5,2.4-28.1,2.3c1.4,2.5,2.7,5.1,3.8,7.8h0.3h1.3h14.3v72.1v0.9v2.4c1.1,1,1.6,2.4,1.7,3.7l0,0l1.9,18.9l-1.8,0.4
	l-1.8-5.5h-6.5l-6.2,8.9l-11.2,2.6l4.2-4.8l2.2-6.7h-7.9c-5.9,0-10.7,4.7-10.8,10.6h-36.3h-3.3h-13.8v-20.9V477V339.5
	c0-0.9-0.1-1.7-0.2-2.4h71.4h30.6v-4.8h-29.5H394h-32l-9.9-42.7h-63.6h-1.9l9.9,42.7h-39.9v4.8h12.9c-0.1,0.7-0.2,1.5-0.2,2.4v94.4
	v0.9v63.5h-7.1c-0.1-5.9-4.9-10.6-10.8-10.6h-5.1v-92.9h11.9c5.8,0,10.4-4.7,10.4-10.4s-4.7-10.4-10.4-10.4H253
	c-1.7,3.1-3.9,6-6.6,8.4v-28v-14.8c0-0.9-0.1-1.7-0.2-2.4h-2.3c-0.1,0.7-0.2,1.5-0.2,2.4V355v29.4c-3.4,2.4-7.4,4.1-11.8,5
	c-10.2,1.9-20.6,3.4-30.7,5.5h18.1v92.8v0.2h-1.5h-7c0.4,1,0.8,2.1,1.1,3.1c0.2,0.8-0.2,1.7-1,1.8l-27.8,4.8c0,0.3,0,0.6-0.1,0.9
	h-5.2H170h-4.3h-9.1h-3.3h-5.2h-3.3h-0.5h-4.7v-6.3v-4.5v-26.3v-1v-29.5v-18.7v-36.5v-36.1c0-0.9-0.1-1.7-0.2-2.4h60.7h41.3v-4.8
	H208h-32l-9.9-42.7h-14h-0.9h-48.7h-1.9l9.9,42.7H89.1h-0.7H70.7v4.8h18.7h0.7h47.1c-0.1,0.7-0.2,1.5-0.2,2.4V377v26.3v25.9v1.1V444
	v52.6v1.7h-0.5h-5.4H128h-7.2h-3.2h-1.1h-3.2h-2.6h-3.5h-5.8H81.7c-2,0-3.6,1.6-3.6,3.6s1.6,3.6,3.6,3.6h450.7c2,0,3.6-1.6,3.6-3.6
	S534.3,498.4,532.4,498.4z M421.9,463.3v-0.9v-67.5h7.8v61.6v0.9v30.4h-7.8V463.3z M272.1,435.4v-0.9v-94.9c0-0.9-0.1-1.7-0.2-2.4
	h39.3h12c-0.1,0.7-0.2,1.5-0.2,2.4v95v0.9v63h-51L272.1,435.4L272.1,435.4z M243.8,394.8v92.9H226v-92.9H243.8z M442.6,304.8
	c-0.2,5.3,2.2,11.2,4.9,19.4h8.9c6.1,0,11-4.9,11-11v-23c0-6.1-4.9-11-11-11h-6.7c-1.7,6.3-3.4,10.7-5,16.1
	C444.1,298.4,443.3,301.5,442.6,304.8z M412.4,182.5c0.6,0,1.1-0.5,1.1-1.1c0-0.2,0-0.4,0.1-0.5c0.3-1.9,1.8-3.3,3.8-3.3H428
	c0.9,0,1.8,0.2,2.7,0.6c2.4,1,4.1,3.4,4.1,6.2v24c-2.8,0.3-4.9,2.6-4.9,5.5c0,1.2,0.4,2.3,1,3.2c0.3,0.5,0.7,0.9,1.2,1.2l-0.9,1.6
	c-3.1,5.2-8,9.2-13.8,11c-0.6,0.2-0.9,0.8-0.7,1.4c0.2,0.5,0.6,0.8,1.1,0.8c0.1,0,0.2,0,0.3-0.1c6.3-2,11.6-6.3,15-12l1-1.8
	c0.4,0.1,0.8,0.1,1.2,0.2h0.1c3.1,0,5.5-2.5,5.5-5.5c0-2.5-1.7-4.6-4-5.3v-24.2c0-2.5-1.1-4.8-2.8-6.5c-1.6-1.5-3.8-2.5-6.2-2.5
	h-10.6c-3.3,0-6.1,2.7-6.1,6.1c0,0.2,0.1,0.4,0.1,0.5C411.6,182.3,411.9,182.5,412.4,182.5z"></path>
<path id="color_x5F_6" fill="#37474F" d="M176,332.3h32l-0.7-3h-6.9h-23.2l-0.9-4.2l-0.9-3.6l-0.4-1.9l-2-8.4l-5-21.6h-1.9
	L176,332.3z M241.5,337.1h2.4h2.3h7.9h2.6v-4.8h-3h-12.2L241.5,337.1L241.5,337.1z M362,332.3h32l-0.7-3h-30.1l-0.9-4.2l-2.7-11.3
	l-5.6-24.2h-1.9L362,332.3z M427.5,332.3v4.8h2.4h2.3h12.3h0.6h6.1h36.4h2.3h7.3v-4.8H450H427.5z"></path>
<path id="color_x5F_5" fill="#FFD2BB" d="M177.1,320.4c-0.7,0.4-1.2,0.8-1.6,1.1l0.8,3.6c1.2-0.6,2.5-1.2,3.8-1.7
	c-0.9,0.9-1.7,1.9-2,3.1c-0.1,0.2,0.2,0.5,0.4,0.4c2-0.8,3.5-2.7,5.3-3.9c0.1-0.1,0.2-0.1,0.2-0.1c3.5,1.2,7.7,2.4,12.3,3.2
	c0.6-2.2,1.1-4.4,1.4-6.6c3.7,1.3,11.7,4.9,21.8,6.6c0.9-3.4,1.6-6.8,1.8-10.3c0-1.4,0-2.8-0.2-4.2c-0.1-0.7-0.2-1.4-0.3-2.1
	c-6.2,0.4-14.8,0.9-23,1.6c-0.1-0.5-0.1-1-0.3-1.6c-6.6,0.4-15.9,1-24.6,1.7l2,8.4C175.6,319.8,176.3,320.1,177.1,320.4z
	 M170.9,472.1l-12.1,2.1l0.2,0.7l0.5,1.9l3.2,1.9c1.1,0.7,2.4,0.9,3.6,0.8l5.3-0.6l-0.3-3.2L170.9,472.1z M192.5,475.6l0.3,1.1
	l3.2,1.9c1.1,0.7,2.4,0.9,3.6,0.8l5.3-0.6l-0.6-6.7l-12.1,2.1l0.1,0.4L192.5,475.6z M245.8,227.7l-0.3-3.1c0.3-1.1,0.4-2.3,0.4-3.6
	l0,0c1.1-0.6,1.8-1.6,2-2.8c-0.9,0.7-2.1,1.1-3.4,1.1c-0.4,0-0.9-0.1-1.3-0.2l-1,1.8c-3.4,5.7-8.7,10-15,12c-0.1,0-0.2,0.1-0.3,0.1
	c-0.5,0-0.9-0.3-1.1-0.8c-0.2-0.6,0.1-1.2,0.7-1.4c5.8-1.9,10.7-5.8,13.8-11l0.9-1.6c-0.6-0.4-1.1-1-1.5-1.6h-1.3l-2.4-12.2l-3-1.6
	l-1-5.8h-16.3v0.1v28.1c0,6.1,4.9,11,11,11h2.5l0.8,9.1c5-3.8,10.5-6.7,16.4-8.7L245.8,227.7z M368.5,324.5c0.8-0.3,1.4-0.9,1.8-1.6
	c1.7-0.4,3.4-0.8,5.1-0.9c3.5,1.6,6.9,2.8,10.2,1.7c1.3-0.4,2.3-1.4,2.7-2.7c4.3-0.3,8.3-0.5,12.1-0.6c3.7-0.1,7.3-0.2,10.7-0.3
	c-0.7-4-0.6-8.1-0.1-12.1c-6.4,1.7-13.1,3.6-18.6,4.9c-0.3-2.3-0.5-4.7-0.5-7c-5.1,2.1-10.4,4.2-15.1,6c-2.5,0.1-5,0.9-7.2,2
	c-2.8-0.5-5.6-0.6-8.3-0.2c-0.6-0.1-1.2-0.1-1.7,0l2.6,11.3C364.4,325.5,366.5,325.4,368.5,324.5z M400.2,476.1l-0.2,1l-1.7,8.9
	l5.3,0.2l9.7-9.2l-0.9-9.6l0,0l0,0l-1.7-1.6l-1.4-11.4l-10.6,2.9l3.3,9.6L400.2,476.1z M337.5,469.2l4.6,2.7l12.9-3.3l3.9-8.8
	l-0.7-2.2l4.4-10.6l-10.7-2.7l-1.8,10L337.5,469.2z M423.2,249.1l1.5-0.2c0.4-2.8,0.7-5.6,1.1-8.4c3.8-1.5,7.4-3.6,10.5-6.3
	l-0.6-8.7l-0.2-2.5h-0.1c0.2-1.1,0.4-2.2,0.4-3.3l-0.6-0.5c-0.4,0-0.8-0.1-1.2-0.2l-1,1.8c-3.4,5.7-8.7,10-15,12
	c-0.1,0-0.2,0.1-0.3,0.1c-0.5,0-0.9-0.3-1.1-0.8c-0.2-0.6,0.1-1.2,0.7-1.4c5.8-1.9,10.7-5.8,13.8-11l0.9-1.6
	c-0.5-0.3-0.9-0.8-1.2-1.2c-4.6-1.2-8.9-3.1-12.9-5.8c-5.3-3.6-10.2-8.3-12.9-13.9l1.2,12.9l1.3,14c0,6.2,5.1,11.2,8.8,11.2h4
	c0.7,0,1.5-0.1,2.2-0.2l0.4,6.1l0,0L423.2,249.1z"></path>
<path id="color_x5F_3" fill="#ffae00" d="M302.5,144.9L302.5,144.9c-0.3,0-0.5,0.2-0.5,0.4c0,0.3,0.2,0.5,0.4,0.5
	c1.2,0,2.5,0.1,3.7,0.2l0,0c0.2,0,0.4-0.2,0.5-0.4c0-0.3-0.2-0.5-0.4-0.5C305,145,303.8,144.9,302.5,144.9z M319.3,435.1
	c-0.3,0-0.4,0.3-0.4,0.5s0.2,0.4,0.5,0.4c0,0,0,0,0.1,0c1.2-0.2,2.4-0.4,3.6-0.6v-0.9c0,0,0,0-0.1,0
	C321.7,434.7,320.5,434.9,319.3,435.1z M152.2,287.7c0-0.3-0.2-0.5-0.5-0.5s-0.5,0.2-0.5,0.5c0,0.7,0,1.3,0,2h0.9
	C152.2,289,152.2,288.3,152.2,287.7z M272.4,435.4c0.2,0,0.4-0.2,0.5-0.4c0-0.3-0.1-0.5-0.4-0.5c-0.1,0-0.3,0-0.4-0.1v0.9
	C272.1,435.4,272.2,435.4,272.4,435.4C272.3,435.4,272.3,435.4,272.4,435.4z M272,147c-0.3,0-0.4,0.3-0.4,0.5s0.2,0.4,0.5,0.4h0.1
	c1.2-0.2,2.4-0.4,3.6-0.6c0.3,0,0.4-0.3,0.4-0.5s-0.3-0.4-0.5-0.4C274.5,146.6,273.2,146.8,272,147z M312.7,145.6
	c-0.2,0-0.5,0.2-0.5,0.4c0,0.3,0.2,0.5,0.4,0.5c0.7,0.1,1.4,0.2,2.2,0.3c0.3-0.3,0.7-0.6,1.1-0.8
	C314.9,145.8,313.8,145.7,312.7,145.6z M394.8,182.3c-0.2,0.2-0.2,0.5,0,0.7c0.9,0.8,1.8,1.7,2.7,2.5c0.1,0.1,0.2,0.1,0.3,0.1
	c0.1,0,0.2,0,0.3-0.1c0.2-0.2,0.2-0.5,0-0.7c-0.9-0.9-1.8-1.7-2.7-2.5C395.3,182.1,395,182.1,394.8,182.3z M292.6,436.6
	c-1.2,0-2.5-0.1-3.7-0.2c-0.2,0-0.5,0.2-0.5,0.4s0.2,0.5,0.4,0.5c1.2,0.1,2.5,0.1,3.7,0.2l0,0c0.2,0,0.5-0.2,0.5-0.4
	C293.1,436.8,292.9,436.6,292.6,436.6z M163.3,347.1c-0.1-0.2-0.4-0.3-0.6-0.2c-0.2,0.1-0.3,0.4-0.2,0.6c0.5,1.1,1,2.3,1.5,3.4
	c0.1,0.2,0.2,0.3,0.4,0.3c0.1,0,0.1,0,0.2,0c0.2-0.1,0.3-0.4,0.2-0.6C164.2,349.3,163.8,348.2,163.3,347.1z M387,175.8
	c-0.2,0.2-0.1,0.5,0.1,0.6c1,0.8,1.9,1.5,2.9,2.3c0.1,0.1,0.2,0.1,0.3,0.1c0.1,0,0.3-0.1,0.4-0.2c0.2-0.2,0.1-0.5-0.1-0.6
	c-1-0.8-1.9-1.6-2.9-2.3C387.4,175.6,387.2,175.6,387,175.8z M402.8,189.4c-0.2-0.2-0.5-0.2-0.7,0s-0.2,0.5,0,0.7
	c0.3,0.3,0.6,0.6,0.9,0.9c0.1-0.3,0.3-0.6,0.4-0.9C403.3,189.9,403.1,189.6,402.8,189.4z M282.5,435.9c-1.2-0.1-2.5-0.3-3.7-0.4
	c-0.2,0-0.5,0.1-0.5,0.4s0.1,0.5,0.4,0.5c1.2,0.2,2.5,0.3,3.7,0.4l0,0c0.2,0,0.4-0.2,0.5-0.4C282.9,436.1,282.8,435.9,282.5,435.9z
	 M159.7,337.6c-0.1-0.2-0.3-0.4-0.6-0.3c-0.2,0.1-0.4,0.3-0.3,0.6c0.4,1.2,0.8,2.3,1.2,3.5c0.1,0.2,0.2,0.3,0.4,0.3
	c0.1,0,0.1,0,0.2,0c0.2-0.1,0.4-0.4,0.3-0.6C160.5,339.9,160.1,338.8,159.7,337.6z M282.1,145.6c-0.3,0-0.4,0.3-0.4,0.5
	s0.2,0.4,0.5,0.4l0,0c1.2-0.1,2.4-0.2,3.7-0.3c0.3,0,0.4-0.2,0.4-0.5s-0.2-0.4-0.5-0.4C284.6,145.4,283.4,145.5,282.1,145.6z
	 M265.6,148.3c-1.2,0.3-2.4,0.6-3.6,0.9c-0.2,0.1-0.4,0.3-0.3,0.6c0.1,0.2,0.2,0.4,0.4,0.4h0.1c1.2-0.3,2.4-0.6,3.6-0.9
	c0.2-0.1,0.4-0.3,0.4-0.6C266.1,148.4,265.9,148.3,265.6,148.3z M218.8,167.8c-1,0.7-2.1,1.3-3.1,2c-0.2,0.1-0.3,0.4-0.1,0.6
	c0.1,0.1,0.2,0.2,0.4,0.2c0.1,0,0.2,0,0.3-0.1c1-0.7,2-1.4,3.1-2c0.2-0.1,0.3-0.4,0.1-0.6C219.3,167.8,219,167.7,218.8,167.8z
	 M227.5,162.6c-1.1,0.6-2.2,1.2-3.2,1.8c-0.2,0.1-0.3,0.4-0.2,0.6c0.1,0.1,0.2,0.2,0.4,0.2c0.1,0,0.2,0,0.2-0.1
	c1.1-0.6,2.1-1.2,3.2-1.8c0.2-0.1,0.3-0.4,0.2-0.6C228,162.6,227.8,162.5,227.5,162.6z M210.4,173.6c-1,0.7-2,1.5-3,2.3
	c-0.2,0.2-0.2,0.4-0.1,0.6c0.1,0.1,0.2,0.2,0.4,0.2c0.1,0,0.2,0,0.3-0.1c1-0.8,1.9-1.5,2.9-2.2c0.2-0.2,0.2-0.4,0.1-0.6
	C210.9,173.5,210.6,173.5,210.4,173.6z M236.7,158.1c-1.1,0.5-2.2,1-3.3,1.6c-0.2,0.1-0.3,0.4-0.2,0.6c0.1,0.2,0.2,0.3,0.4,0.3
	c0.1,0,0.1,0,0.2,0c1.1-0.5,2.2-1.1,3.3-1.6c0.2-0.1,0.3-0.4,0.2-0.6C237.2,158.1,236.9,158,236.7,158.1z M262.5,432.4
	c-1.2-0.3-2.4-0.6-3.6-0.9c-0.2-0.1-0.5,0.1-0.6,0.3s0.1,0.5,0.3,0.6c1.2,0.3,2.4,0.6,3.6,0.9h0.1c0.2,0,0.4-0.1,0.4-0.4
	C262.9,432.7,262.8,432.5,262.5,432.4z M246.1,154.1c-1.2,0.4-2.3,0.9-3.5,1.4c-0.2,0.1-0.4,0.4-0.3,0.6c0.1,0.2,0.2,0.3,0.4,0.3
	c0.1,0,0.1,0,0.2,0c1.1-0.5,2.3-0.9,3.4-1.3c0.2-0.1,0.4-0.4,0.3-0.6S246.3,154.1,246.1,154.1z M202.4,180c-0.9,0.8-1.9,1.6-2.8,2.5
	c-0.2,0.2-0.2,0.5,0,0.7c0.1,0.1,0.2,0.2,0.3,0.2s0.2,0,0.3-0.1c0.9-0.8,1.8-1.6,2.8-2.4c0.2-0.2,0.2-0.5,0.1-0.7
	C202.9,179.9,202.6,179.8,202.4,180z M255.8,150.9c-1.2,0.4-2.4,0.7-3.5,1.1c-0.2,0.1-0.4,0.3-0.3,0.6c0.1,0.2,0.2,0.3,0.4,0.3h0.1
	c1.2-0.4,2.3-0.7,3.5-1.1c0.2-0.1,0.4-0.3,0.3-0.6C256.3,150.9,256,150.8,255.8,150.9z M153.1,271.5c0.2,0,0.4-0.2,0.5-0.4
	c0.2-1.2,0.4-2.4,0.6-3.7c0-0.3-0.1-0.5-0.4-0.5c-0.3,0-0.5,0.1-0.5,0.4c-0.2,1.2-0.4,2.4-0.6,3.7
	C152.6,271.2,152.8,271.5,153.1,271.5C153,271.5,153.1,271.5,153.1,271.5z M155.2,257.3c-0.3,1.2-0.6,2.4-0.8,3.6
	c-0.1,0.2,0.1,0.5,0.4,0.5h0.1c0.2,0,0.4-0.1,0.5-0.4c0.3-1.2,0.5-2.4,0.8-3.6c0.1-0.2-0.1-0.5-0.3-0.6
	C155.5,256.9,155.2,257,155.2,257.3z M157.9,247.4c-0.4,1.2-0.7,2.4-1.1,3.6c-0.1,0.2,0.1,0.5,0.3,0.6h0.1c0.2,0,0.4-0.1,0.4-0.3
	c0.3-1.2,0.7-2.4,1.1-3.5c0.1-0.2-0.1-0.5-0.3-0.6C158.2,247.1,158,247.2,157.9,247.4z M161.3,237.8c-0.5,1.2-0.9,2.3-1.3,3.5
	c-0.1,0.2,0,0.5,0.3,0.6c0.1,0,0.1,0,0.2,0c0.2,0,0.4-0.1,0.4-0.3c0.4-1.2,0.9-2.3,1.3-3.5c0.1-0.2,0-0.5-0.3-0.6
	C161.7,237.4,161.4,237.5,161.3,237.8z M152.4,277c-0.3,0-0.5,0.2-0.5,0.4c-0.1,1.2-0.2,2.5-0.3,3.7c0,0.3,0.2,0.5,0.4,0.5l0,0
	c0.2,0,0.4-0.2,0.5-0.4c0.1-1.2,0.2-2.5,0.3-3.7C152.8,277.3,152.6,277,152.4,277z M165.4,228.4c-0.5,1.1-1.1,2.2-1.6,3.4
	c-0.1,0.2,0,0.5,0.2,0.6c0.1,0,0.1,0,0.2,0c0.2,0,0.3-0.1,0.4-0.3c0.5-1.1,1-2.2,1.5-3.4c0.1-0.2,0-0.5-0.2-0.6
	C165.8,228,165.5,228.1,165.4,228.4z M175.4,210.6c-0.7,1-1.4,2.1-2,3.1c-0.1,0.2-0.1,0.5,0.1,0.6c0.1,0,0.2,0.1,0.2,0.1
	c0.2,0,0.3-0.1,0.4-0.2c0.7-1,1.3-2.1,2-3.1c0.1-0.2,0.1-0.5-0.1-0.6S175.6,210.4,175.4,210.6z M181.4,202.2c-0.8,1-1.5,2-2.2,3
	c-0.1,0.2-0.1,0.5,0.1,0.6c0.1,0.1,0.2,0.1,0.3,0.1s0.3-0.1,0.4-0.2c0.7-1,1.5-2,2.2-3c0.2-0.2,0.1-0.5-0.1-0.6
	C181.8,202,181.5,202,181.4,202.2z M170.1,219.3c-0.6,1.1-1.2,2.2-1.8,3.3c-0.1,0.2,0,0.5,0.2,0.6c0.1,0,0.1,0.1,0.2,0.1
	c0.2,0,0.3-0.1,0.4-0.2c0.6-1.1,1.2-2.2,1.8-3.2c0.1-0.2,0-0.5-0.2-0.6C170.5,219,170.2,219.1,170.1,219.3z M292.3,144.9
	c-0.3,0-0.5,0.2-0.4,0.5c0,0.2,0.2,0.4,0.5,0.4l0,0c1.2,0,2.5-0.1,3.7-0.1c0.3,0,0.5-0.2,0.5-0.5s-0.2-0.4-0.5-0.5
	C294.8,144.8,293.6,144.9,292.3,144.9z M312.9,435.9c-1.2,0.1-2.4,0.2-3.7,0.3c-0.3,0-0.4,0.2-0.4,0.5c0,0.2,0.2,0.4,0.5,0.4l0,0
	c1.2-0.1,2.5-0.2,3.7-0.3c0.3,0,0.4-0.3,0.4-0.5C313.4,436,313.2,435.8,312.9,435.9z M215.8,412.6c0.1,0.1,0.2,0.1,0.3,0.1
	s0.3-0.1,0.4-0.2c0.1-0.2,0.1-0.5-0.1-0.6c-1-0.7-2-1.4-3-2.1c-0.2-0.1-0.5-0.1-0.6,0.1s-0.1,0.5,0.1,0.6
	C213.7,411.2,214.8,411.9,215.8,412.6z M207.5,406.6c0.1,0.1,0.2,0.1,0.3,0.1s0.3-0.1,0.4-0.2c0.2-0.2,0.1-0.5-0.1-0.6
	c-1-0.8-1.9-1.5-2.9-2.3c-0.2-0.2-0.5-0.1-0.6,0.1c-0.2,0.2-0.1,0.5,0.1,0.6C205.6,405,206.5,405.8,207.5,406.6z M339.3,431.6h0.1
	c1.2-0.4,2.4-0.7,3.5-1.1c0.2-0.1,0.4-0.3,0.3-0.6c-0.1-0.2-0.3-0.4-0.6-0.3c-1.2,0.4-2.3,0.7-3.5,1.1c-0.2,0.1-0.4,0.3-0.3,0.6
	C338.9,431.4,339.1,431.6,339.3,431.6z M333.4,432.7c-0.1-0.2-0.3-0.4-0.6-0.3c-1.2,0.3-2.4,0.6-3.6,0.8c-0.2,0.1-0.4,0.3-0.4,0.6
	c0,0.2,0.2,0.4,0.5,0.4h0.1c1.2-0.3,2.4-0.6,3.6-0.9C333.4,433.2,333.5,433,333.4,432.7z M167.5,356.3c-0.1-0.2-0.4-0.3-0.6-0.2
	c-0.2,0.1-0.3,0.4-0.2,0.6c0.6,1.1,1.1,2.2,1.7,3.3c0.1,0.2,0.2,0.2,0.4,0.2c0.1,0,0.1,0,0.2-0.1c0.2-0.1,0.3-0.4,0.2-0.6
	C168.6,358.5,168.1,357.4,167.5,356.3z M230.2,421.1c1.1,0.6,2.2,1.1,3.3,1.7c0.1,0,0.1,0,0.2,0c0.2,0,0.3-0.1,0.4-0.3
	c0.1-0.2,0-0.5-0.2-0.6c-1.1-0.5-2.2-1.1-3.3-1.7c-0.2-0.1-0.5,0-0.6,0.2C229.8,420.8,229.9,421,230.2,421.1z M399.5,395.1
	c0.1,0.2,0.1,0.3,0.2,0.5c0.1,0.1,0.2,0.1,0.3,0.1c0.1,0,0.2,0,0.3-0.1c0.3-0.2,0.5-0.5,0.7-0.8h-1.3l-0.1,0.1
	C399.6,395,399.5,395.1,399.5,395.1z M199.7,400c0.1,0.1,0.2,0.1,0.3,0.1s0.3-0.1,0.3-0.2c0.2-0.2,0.2-0.5,0-0.7
	c-0.9-0.8-1.8-1.7-2.7-2.5c-0.2-0.2-0.5-0.2-0.7,0s-0.2,0.5,0,0.7C197.9,398.3,198.8,399.2,199.7,400z M239.4,425.6
	c1.1,0.5,2.3,1,3.4,1.4c0.1,0,0.1,0,0.2,0c0.2,0,0.4-0.1,0.4-0.3c0.1-0.2,0-0.5-0.3-0.6c-1.1-0.5-2.3-0.9-3.4-1.4
	c-0.2-0.1-0.5,0-0.6,0.2C239.1,425.2,239.2,425.5,239.4,425.6z M376.4,414.6c1-0.7,2.1-1.3,3.1-2c0.2-0.1,0.3-0.4,0.1-0.6
	c-0.1-0.2-0.4-0.3-0.6-0.1c-0.9,0.6-1.8,1.2-2.6,1.7l-0.4,1.1c0.1,0,0.2,0.1,0.2,0.1C376.2,414.7,376.3,414.7,376.4,414.6z
	 M302.8,436.6c-1.2,0-2.5,0.1-3.7,0.1c-0.3,0-0.5,0.2-0.5,0.5s0.2,0.5,0.5,0.5l0,0c1.2,0,2.5,0,3.7-0.1c0.3,0,0.5-0.2,0.4-0.5
	C303.2,436.8,303,436.6,302.8,436.6z M252.8,429.6c-1.2-0.4-2.3-0.8-3.5-1.2c-0.2-0.1-0.5,0-0.6,0.3c-0.1,0.2,0,0.5,0.3,0.6
	c1.2,0.4,2.3,0.8,3.5,1.2h0.1c0.2,0,0.4-0.1,0.4-0.3C253.1,430,253,429.7,252.8,429.6z M348.9,428.3c0.1,0,0.1,0,0.2,0
	c1.2-0.4,2.3-0.9,3.5-1.3c0.2-0.1,0.4-0.4,0.3-0.6s-0.4-0.3-0.6-0.3c-1.1,0.5-2.3,0.9-3.4,1.3c-0.2,0.1-0.4,0.4-0.3,0.6
	C348.5,428.2,348.7,428.3,348.9,428.3z M268.3,434.2c0,0.3,0.1,0.5,0.4,0.5c0.3,0.1,0.5,0.1,0.8,0.1v-0.9c-0.2,0-0.4-0.1-0.6-0.1
	C268.6,433.8,268.3,433.9,268.3,434.2z M415.7,286.4c1.1-19.2,11.3-36.3,25.9-49.5c-1.2-0.1-2.5-0.1-3.8,0.1
	c-0.4-1.1-0.8-2.2-1.1-3.2c-0.2,0.1-0.3,0.3-0.5,0.4c-3.1,2.6-6.7,4.8-10.5,6.3c-0.4,2.8-0.7,5.6-1.1,8.4l-1.5,0.2l-0.5-7.8l0,0
	l-2,1l0.6,1.5c-2.2,1.4-4.4,2.9-6.5,4.4C410.8,260.5,412.2,274.1,415.7,286.4z M219.6,276.5h10v2.6h-10V276.5z M421,269.6h10v2.6
	h-10V269.6z M247.9,218.2c-0.2,1.2-0.9,2.3-2,2.8l0,0c0,1.2-0.2,2.4-0.4,3.6l0.3,3.1c1.3-3.4,2.4-6.9,3.2-10.5
	C248.6,217.5,248.3,217.9,247.9,218.2z M232,197.1l1,5.8l3,1.6l2.4,12.2h1.3c-0.5-0.8-0.8-1.8-0.8-2.8c0-2.8,2.1-5.2,4.9-5.5v-22.8
	c-0.7-0.9-1.5-1.8-2.3-2.4c-3.1-2.6-8.4-4.3-12.4-4.1c-2.1,0.1-4.1,0.6-6.2,1.1c-0.2,0.4-0.3,0.9-0.3,1.3c0,0.6-0.5,1.1-1.1,1.1
	s-1.1-0.5-1.1-1.1c0-0.2,0-0.4,0-0.7c-0.8,0.2-1.5,0.4-2.3,0.6c-3.6,0.9-7.6,1.4-11,0c-0.9,5.7,2.3,11.6,7.1,14.9
	c0.5,0.3,1,0.6,1.5,0.9v-0.1H232L232,197.1z M246.1,208.5c1.8,0.5,3.2,1.9,3.7,3.7c0.3-2.3,0.6-4.7,0.7-7.1c0.1-3.1,0-6.4-1.5-9.2
	c-0.3-0.5-0.6-1-1-1.4c-0.4-1.7-1.3-4.2-1.9-5.5V208.5z M436.8,184.3v24.2c2.3,0.7,4,2.8,4,5.3c0,3.1-2.5,5.5-5.5,5.5h-0.1l0.6,0.5
	c0,1.1-0.1,2.2-0.4,3.3h0.1l0.2,2.5c3-1.7,5.6-4,7.6-6.9c2.1,7.3,3.6,14.8,5.8,22.1c1.9,2.1,3.1,4.9,3.9,7.6
	c0.1,0.4,0.2,0.8,0.3,1.2c0.5-8.4,1-16.7,1.5-25.1c0.5-8.2,1-16.4,1.5-24.7c0.2-3.8,0.4-7.7-0.9-11.2c-2.3-6.1-8.7-9.8-15.1-10.7
	c-2.1-0.3-4.1-0.3-6.2-0.2C435.8,179.5,436.8,181.7,436.8,184.3z M417.8,211.2c4,2.7,8.4,4.7,12.9,5.8c-0.7-0.9-1-2-1-3.2
	c0-2.8,2.1-5.2,4.9-5.5v-24c0-2.8-1.7-5.1-4.1-6.2c-2,0.3-4.1,0.6-6.1,1c-0.4,0-0.8-0.1-1.1-0.1c-3.3-0.2-6.7,0.5-9.8,1.8
	c0,0.2-0.1,0.4-0.1,0.5c0,0.6-0.5,1.1-1.1,1.1c-0.4,0-0.8-0.2-1-0.6c-3.1,1.8-5.8,4.3-7.5,7.4c-0.1,0.2-0.2,0.5-0.4,0.7
	c-0.1,0.3-0.3,0.6-0.4,0.9c-2.7,6.3-1.7,14.2,3,19.2l-1.2-12.9C407.7,202.8,412.5,207.6,417.8,211.2z"></path>
<path id="color_x5F_2_1_" fill="#616161" d="M136.6,498.4h0.5v-1.7L136.6,498.4L136.6,498.4z M130.1,380.7c0,0,2.9,9.5,7,22.6V377
	C134.7,378.2,132.3,379.5,130.1,380.7z M146.4,434.5c0.5,1.8,1,3.5,1.6,5.3c1.3,4.3,2.5,8.5,3.6,12.5c0.5,1.7,1,3.4,1.4,5
	c1.6,5.6,2.9,10.6,3.9,14.6c0.2,0.9,0.4,1.8,0.6,2.6l1.2-0.2l12.1-2.1l1.4-0.2c-0.2-3.5-0.4-7.3-0.7-11.1c-0.1-2.2-0.3-4.4-0.4-6.6
	c-0.1-1.4-0.2-2.9-0.3-4.4c-1.5-22.8-4.4-46.4-14.9-52.2c3.8-1.1,7.8-2,11.7-2.8c-2.6-8.5-4.4-14.1-4.4-14.1
	c15.3-8.6,34.1-17.1,52.7-24.7c-5.4-0.8-10.8-2.1-15.9-4.1c0-1,0-2,0-2.9c-20.1,7.9-42,17.1-60.5,26.6v36.5c1.9,6.3,3.9,13,5.9,19.7
	C145.9,432.7,146.2,433.6,146.4,434.5z M208.6,483c-1.3-2.5-2.5-4.3-2.5-4.3l-1.2,0.1l-5.3,0.6c-1.2,0.1-2.5-0.1-3.6-0.8l-3.2-1.9
	l-0.9-0.5l-2.6,5.9c-1.4,3.1-4.9,4.8-7.9,6l-3.4,1.4c-0.5-1.4-1.1-2.8-1.7-4.1c-1.4-3-3-5.6-3.5-6.4c-0.1-0.2-0.2-0.3-0.2-0.3
	l-1.2,0.1l-5.3,0.6c-1.2,0.1-2.5-0.1-3.6-0.8l-3.2-1.9l-0.9-0.5l-2.6,5.9c-0.2,0.5-0.5,1-0.9,1.4c-1.3,1.7-3.1,2.8-5.1,3.8
	c-0.6,0.3-1.3,0.6-1.9,0.8l-5.8,2.3c-0.1,0-0.1,0-0.1,0.1c-0.9,0.4-1.7,0.9-2.4,1.6v6.3h4.7l0.5-0.1l3.6-0.6l5.5-0.9l3.5-0.6l11.5-2
	l2.8-0.5c-0.5,0.8-1,1.7-1.2,2.7l-0.5,2l0,0h7.8l5.3-0.9l27.8-4.8c0.8-0.1,1.3-1,1-1.8c-0.3-1-0.6-2.1-1.1-3.1
	c-0.5-1.3-1.1-2.6-1.7-3.7C208.9,483.7,208.8,483.3,208.6,483z M373.6,363.6L428,352c-11,1.3-22.4,0.5-31.5-2.7l0,0L373.6,363.6z
	 M380.2,403.6l18.5,53.7l10.6-2.9l-5-41.1c-0.7-6.1-2.3-12.1-4.6-17.7c-0.1-0.2-0.1-0.3-0.2-0.5c0-0.1-0.1-0.2-0.1-0.3
	c-1.1-2.7-2.4-5.3-3.8-7.8c-4.5,0-8.6-0.2-12.1-0.4C383.1,392.4,382,398.1,380.2,403.6z M255.4,351.1c-2.9,1.3-5.9,2.3-9,3.2v28
	c2.7-2.4,4.9-5.2,6.6-8.4C256.6,367.2,257.7,359,255.4,351.1z M216.2,356c-18.5,7.6-37.4,16.1-52.7,24.7c0,0,1.7,5.6,4.4,14.1
	c6.7,21.6,19,62.3,23,78.9c0.1,0.2,0.1,0.4,0.2,0.7l0.8-0.1l0.4-0.1l12.1-2.1l1.4-0.2c-1.8-27-2.3-66.5-16.2-74.2
	c3.8-1.1,7.8-2,11.7-2.8c10.1-2.1,20.4-3.6,30.7-5.5c4.4-0.8,8.4-2.6,11.8-5V355C234.8,357,225.4,357.4,216.2,356z M451.3,345.5
	c-0.9,0.4-1.8,0.9-2.8,1.3l-3.4-9.7h-0.6l-0.8,11.5c-3.6,1.2-7.4,2.1-11.3,2.8v30.3c3.9-1.9,7.3-4.6,10.2-7.7
	C449.4,366.5,452.8,356.2,451.3,345.5z M373.6,363.6l-7.2,1.5l0.1,0.2l-0.2,0.2L352,444.3l10.7,2.7l13.3-32.4l0.4-1.1l2-4.9
	c0.7-1.7,1.3-3.4,1.8-5.1c1.8-5.5,2.9-11.3,3.3-17.1c3.4,0.2,7.6,0.4,12.1,0.4c8.6,0,18.6-0.5,28.1-2.3c2.1-0.4,4.2-1,6.1-1.8v-31.1
	c-0.6,0.1-1.2,0.2-1.8,0.2L373.6,363.6z"></path>
<path id="color_x5F_1" fill="#364162" d="M171,449.8c0.3-0.5,0.6-1.1,0.9-1.6c0.5,0.6,1,1.2,1.5,1.8c-0.7,1.4-1.4,2.8-2.1,4.2
	C171.2,452.7,171.1,451.3,171,449.8z M148.2,498.4h5.2c0.2-0.6,0.4-1.1,0.6-1.7l-5.5,1C148.4,497.9,148.3,498.2,148.2,498.4z
	 M159.4,476.7l-0.5-1.9c-1.3,2.9-2.6,5.8-3.9,8.7c0.3-0.4,0.6-0.9,0.9-1.4l2.6-5.9L159.4,476.7z M156.7,498.4h9.1
	c1.1-1.4,2.2-2.8,3.3-4.2l-11.6,1.9C157.2,496.9,156.9,497.6,156.7,498.4z M264.9,280.1c-0.2,0.8-0.3,1.4-0.5,2
	c-2.7,9.2-6.7,18-8.9,27.3c-1.2,4.8-1.9,9.8-2.1,14.8c-0.1,2.7-0.1,5.4,0.1,8.1h-12.1h-33.5l-0.7-3h-6.9c0-0.8,0.1-1.7,0.1-2.5
	c-1.3-0.2-2.7-0.5-4.1-0.7c0.6-2.1,1.1-4.4,1.4-6.6c3.7,1.2,11.7,4.9,21.8,6.6c1-3.4,1.7-6.8,1.8-10.3c0-1.4,0-2.8-0.2-4.2
	c0-0.7-0.2-1.4-0.3-2.1c-6.2,0.3-14.7,0.9-22.8,1.6c-0.1-0.6-0.2-1.1-0.3-1.6c1.5-0.1,2.9-0.1,4.1-0.2c0.2-2.2,0.5-4.4,0.8-6.6
	c2.3-16.3,5.2-34.2,17.7-46.3c1.3-1.2,2.6-2.4,4.1-3.4c-0.2-0.8-0.4-1.6-0.4-2.4c1.9-1.9,3.9-3.6,6-5.2c4.9-3.7,10.5-6.7,16.4-8.7
	c1.1-0.4,2.1-0.7,3.2-1c1.2,2.3,2.5,4.7,3.7,7C266.2,245.4,266.8,270.2,264.9,280.1z M229.6,276.5h-10v2.6h10V276.5z M192.2,474.6
	c-0.2-0.1-0.3-0.2-0.5-0.3l-0.8,0.1c-0.1-0.2-0.1-0.4-0.2-0.7c-3.061-1.777-6.025-3.653-8.987-5.529
	c-0.006-0.025-0.006-0.045-0.013-0.071c-0.1-0.3-0.1-0.6-0.2-0.9c0-0.2-0.1-0.3-0.1-0.5c-0.175,0.262-0.361,0.456-0.602,0.699
	c-0.782-0.586-1.658-1.08-2.444-1.662c0.682-0.785,1.366-1.657,2.146-2.437c-1.2-3.7-3-7.2-5.1-10.4c-1.3,2.6-2.5,5.2-3.7,7.9
	c0.2,3.9,0.4,7.6,0.7,11.1l-1.4,0.2l0.3,3.5c1.8-3.2,4-6.3,6.5-9.2c0.021-0.021,0.033-0.041,0.052-0.062
	c0.78,0.585,1.561,1.167,2.437,1.655c-0.03,0.036-0.053,0.071-0.089,0.107c-2.9,3.4-5.4,7-7.4,10.9c0.5,0.8,2.1,3.4,3.5,6.4
	c2.1-2.4,4.2-4.9,6.4-7.2c0.1-3.1-0.2-6.1-0.8-9c-0.065-0.259-0.094-0.482-0.129-0.711c0.077,0.224,0.129,0.463,0.129,0.711
	c3.5,2.2,7,4.4,10.6,6.4L192.2,474.6z M246.2,337c0.1,0.7,0.2,1.5,0.2,2.4v14.8c3.1-0.8,6.1-1.9,9-3.2c0.6-0.1,1.2-0.4,1.7-0.7
	c-1.4-4.3-2.4-8.8-3-13.3L246.2,337L246.2,337z M200.2,337v0.1c0,4,0,8,0,11.9c0,1,0,2,0,2.9c5.1,1.9,10.5,3.3,15.9,4.1
	c9.2,1.3,18.6,1,27.6-1.1v-15.5c0-0.9,0.1-1.7,0.2-2.4h-2.4H200.2z M209.1,484c2.9,1.3,5.8,2.5,8.7,3.7h1.5v-0.2
	c-3.6-1.4-7.3-3-10.8-4.6C208.8,483.3,208.9,483.7,209.1,484z M167.9,158.5c-0.8-0.2-1.7-0.2-2.6-0.1c-1.4,0.1-2.9,0.6-4.1,1.4
	c-0.5,0.3-2,1.6-2.7,2.3c0,0-0.1,0-0.1,0.1c0,0-0.1,0-0.1-0.1c-0.8-0.7-2.2-2-2.7-2.3c-1.2-0.8-2.6-1.3-4.1-1.4
	c-0.9-0.1-1.8-0.1-2.6,0.1c-4.8,1.1-4.7,6.8-3,10.8c1.3,2.8,3.1,5.3,5,7.5c1.1,1.3,6.2,5.9,7.6,7.3c1.5-1.5,6.5-6,7.6-7.3
	c1.9-2.2,3.7-4.8,4.8-7.5C172.6,165.4,172.7,159.7,167.9,158.5z M90.9,467.9c-0.5,2.7-0.7,5.4-0.6,8.1c2.2,4.3,4.8,8.5,6.9,12.8
	c1.5,3.2,2.9,6.4,4.4,9.6h5.8c-0.2-0.3-0.3-0.6-0.5-0.8C101.7,487.6,96.5,477.7,90.9,467.9z M99.7,368c-4-10-7.2-20.3-9.6-30.9h-0.7
	c2.4,10.6,5.6,21,9.6,31.1C99.2,368.1,99.5,368,99.7,368z M94.7,456.7c2.2,4.1,4.3,8.2,6.3,12.4c0.8,1.8-1.8,3.4-2.7,1.6
	c-1.7-3.5-3.4-6.9-5.2-10.3c-0.4,1-0.8,2.1-1.1,3.2c6.5,11.3,12.5,22.9,18.6,34.4c0.1,0.2,0.2,0.3,0.3,0.5h2.6
	c-4.9-16-9.8-31.8-15.6-47.3C96.7,453,95.6,454.8,94.7,456.7z M115.8,178.9c-0.2-0.1-0.4-0.3-0.6-0.4
	C95,211.6,84.1,249.8,84.1,289.6c0,14.5,1.5,28.8,4.3,42.7h0.7c-2.9-13.8-4.4-28.1-4.4-42.7C84.7,249.1,96.1,211.2,115.8,178.9z
	 M151.7,483.4c1.8-3.9,3.5-7.7,5.2-11.6c-1-3.9-2.3-8.9-3.9-14.6c-4,10.8-7.9,21.9-10.9,33.3c0.1,0,0.1,0,0.1-0.1l5.8-2.3
	c0.6-0.3,1.3-0.5,1.9-0.8C150.5,486,151.1,484.7,151.7,483.4z M106.1,384.2c8.2,16.5,18.5,32,30.9,46.1v-1.1
	c-11.9-13.7-22.1-29-30.2-45.4C106.6,383.9,106.4,384.1,106.1,384.2z M104.1,443.9c1.1,3.2,2.1,6.4,3.3,9.6c0.7,1.9-2.3,2.7-3,0.8
	c-0.9-2.6-1.8-5.2-2.7-7.9c-0.5,0.6-1.1,1.2-1.6,1.8c6.2,16.5,11.4,33.3,16.5,50.1h1.1c-4.2-19.1-7.1-38.6-9.2-58.2
	C106.9,441.3,105.5,442.6,104.1,443.9z M151.6,452.3c-1.1-4-2.4-8.2-3.6-12.5c-0.1,0.3-0.2,0.5-0.3,0.8s-0.2,0.5-0.2,0.8
	c-2,6.5-3.7,13.2-4.9,19.9c-0.3,1.7-2.5,1.3-2.9-0.1v26.3c3.1-11.3,7.1-22.4,11.1-33.2C151.1,453.7,151.3,453,151.6,452.3z
	 M144.9,498.4v-0.1l-0.5,0.1H144.9z M136.6,430.7c-0.2,0-0.4,0-0.6,0c-3.7,0-7.3,0.5-10.8,1.4c-0.9,12.2-1.4,24.4-0.2,36.6
	c0.2,2-2.9,2-3.1,0c-1.1-11.9-0.7-23.8,0.2-35.7c-3.7,1.3-7.2,3-10.5,5.1c2.1,20.3,5,40.4,9.5,60.3h7.2
	C127.6,475.8,132.2,453.2,136.6,430.7z M131.2,498.3l5.4,0.1l0.5-1.7V444C133.7,462.1,130.7,480.2,131.2,498.3z M146.6,440.6
	c0.3,0.3,0.6,0.5,0.8,0.8c0.1-0.3,0.2-0.5,0.2-0.8c-0.752-0.752-1.587-1.51-2.349-2.344c0.017-0.053,0.031-0.102,0.049-0.156
	c0.4-1.2,0.8-2.4,1.2-3.6c-0.3-0.9-0.5-1.8-0.8-2.7c-1.9-0.5-3.9-0.8-5.9-1v29.5c1.295-7.272,3.087-14.345,5.276-21.319
	C145.561,439.544,146.124,440.029,146.6,440.6z M454.3,444c1.1,3.2,2.1,6.4,3.3,9.6c0.7,1.9-2.3,2.7-3,0.8c-0.9-2.6-1.8-5.2-2.7-7.9
	c-0.5,0.6-1.1,1.2-1.6,1.8c6.2,16.5,11.4,33.3,16.5,50.1h1.1c-4.3-19.2-7.2-38.6-9.2-58.2C457.2,441.3,455.8,442.6,454.3,444z
	 M495.9,210.3c-0.2,0.1-0.4,0.2-0.7,0.3c9.8,24.4,15.2,51.1,15.2,79c0,32.5-7.3,63.3-20.4,90.9v1.7c13.9-28.5,21.1-60,21.1-92.6
	C511.1,262,505.9,235.2,495.9,210.3z M350.3,484.7l1.8,0.5l7.7-17.4c0.6-1.2,0.7-2.7,0.3-4.2l-1.2-3.9l-3.9,8.8l-12.9,3.3l-4.5-2.7
	l-6.5,6l-5.3,1.8v0.5l10.3,3l16.6-7.9L350.3,484.7z M486.8,430.7c-0.2,0-0.4,0-0.6,0c-3.7,0-7.3,0.5-10.9,1.4
	c-0.9,12.2-1.4,24.4-0.2,36.6c0.2,2-2.9,2-3.1,0c-1.1-11.9-0.7-23.8,0.2-35.7c-3.7,1.3-7.2,3-10.5,5.1c2.1,20.3,5,40.4,9.5,60.3h7.2
	C477.8,475.8,482.5,453.2,486.8,430.7z M481.4,498.4h5.9c0-0.2,0.1-0.4,0.1-0.7v-54.5C483.9,461.6,480.9,480,481.4,498.4z
	 M297.6,76.2c-57.1,0-110.6,22.2-151,62.5c-2.2,2.2-4.3,4.4-6.4,6.7h1c38.9-42.2,94.7-68.7,156.4-68.7c83.3,0,155.6,48.1,190.5,118
	c0.2-0.1,0.5-0.2,0.7-0.3c-10.2-20.4-23.7-39.2-40.2-55.7C408.3,98.4,354.7,76.2,297.6,76.2z M531.8,467.2c0-0.2-0.1-0.3-0.1-0.5
	c-4.4,5-8.3,10.5-10.5,16.8c-0.7,1.9-3.6,1.1-3-0.8c2.6-7.4,7.2-13.6,12.5-19.3c-1.2-3.7-3-7.2-5.1-10.4
	c-4.6,9.3-8.5,18.8-12.3,28.5c-2.2,5.7-4.3,11.4-6.4,17.1h9.1c5.3-7.3,11.1-14,17-20.5C533.1,474.4,532.7,470.8,531.8,467.2z
	 M497.5,432.2c-2.4-0.7-4.9-1.1-7.4-1.4v28.6C491.8,450.1,494.5,441.1,497.5,432.2z M520.6,456.2c1-2,2-4.1,3-6.1
	c-0.5-0.6-1-1.2-1.5-1.8c-1.4,2.6-2.8,5.2-4.1,7.9c-4.6,9.1-8.7,18.4-12.8,27.7c-2.1,4.7-4.5,9.6-6.7,14.6h5.2
	c1.9-5.4,3.8-10.7,5.9-16C513,473.6,516.4,464.7,520.6,456.2z M516.3,452.6c1.2-2.3,2.4-4.6,3.7-6.9c-0.7-0.7-1.4-1.4-2.1-2.1
	c-2.2,3.6-4.5,7.2-6.9,10.7c-1.1,1.6-3.8,0.1-2.7-1.6c2.5-3.7,4.8-7.5,7.2-11.2c-1.5-1.2-3-2.3-4.6-3.4c-2.4,5.6-4.7,11.3-6.8,17
	c-5.2,13.9-10.3,28.4-13.6,43.1h4.7c2.2-5,4.6-10,6.8-14.8C506.6,473.1,511.2,462.7,516.3,452.6z M508.1,436.6
	c-2.5-1.4-5.1-2.5-7.8-3.5c-3.1,9.2-5.9,18.6-7.5,28.2c-0.3,1.5-2.1,1.4-2.8,0.3V487c3.2-11.1,7.1-22,11-32.6
	C503.2,448.4,505.6,442.5,508.1,436.6z M432.4,454.3v1c5.6-4.6,11-9.5,16.2-14.6c15.8-15.8,28.8-33.7,38.8-53V386
	C474,412.4,455.2,435.6,432.4,454.3z M404.2,296.3c2.1-16.6-14.7-22.9,2-40.7c2.1-2.2,5.1-4.8,8.5-7.3c-3.9,12.3-2.5,26,1,38.3
	c1.1-19.2,11.3-36.4,25.9-49.5c1.1,0.1,2.2,0.3,3.2,0.7c1.7,0.7,3.1,1.8,4.3,3.1c1.8,2.1,3.1,4.8,3.9,7.6c0.1,0.4,0.2,0.8,0.3,1.2
	c2.1,9-1,19.7-3.3,28.6c0,0.2-0.1,0.5-0.2,0.8c-1.7,6.4-3.4,10.8-5,16.1c-0.8,3.1-1.5,6.3-2.2,9.6c-0.2,5.3,2.2,11.2,4.9,19.4
	c0.9,2.5,1.7,5.2,2.5,8.1h-22.4h-29.5c0.9-3.9,1.7-7.8,2.4-11.7c3.7-0.1,7.3-0.2,10.7-0.3c-0.6-4-0.5-8.2-0.1-12.1
	c-6.4,1.8-13.1,3.7-18.6,5.1c-0.3-2.3-0.5-4.7-0.5-7c4-1.6,8-3.2,11.5-4.4C403.7,300,404,298.1,404.2,296.3z M421,272.2h10v-2.6h-10
	V272.2z M448.5,346.8c1-0.4,1.9-0.8,2.8-1.3c0.5-0.2,0.9-0.5,1.4-0.7c-0.5-2.7-1-5.3-1.6-7.7h-6L448.5,346.8z M415.3,470.3l-1.4-1.4
	c0.5-0.3,1-0.6,1.5-1V467c-0.7,0.4-1.3,0.9-2,1.3l-1-0.9l0.9,9.6l-9.6,9.2l-5.3-0.1l-0.6,1.7l-2.2,6.7l-4.2,4.8l11.2-2.6l6.2-8.9
	l4.4-6.2l2.1,6.2l1.8,5.5l1.8-0.4L417,474C416.9,472.6,416.3,471.3,415.3,470.3z M445,456.7c2.2,4.1,4.3,8.2,6.3,12.4
	c0.9,1.8-1.8,3.4-2.7,1.6c-1.7-3.5-3.4-6.9-5.2-10.3c-0.4,1-0.8,2.1-1.1,3.2c6.5,11.3,12.5,22.9,18.6,34.4c0.1,0.2,0.2,0.3,0.3,0.5
	h2.6c-4.8-15.8-9.7-31.7-15.5-47.2C447,453,445.9,454.8,445,456.7z M400.2,476.1c-18.7,10.3-39.2,17.9-60.8,22.3h3.3
	c20.1-4.3,39.4-11.5,57.3-21.3L400.2,476.1z M339.9,168.5h-8.5v16.1h8.5V168.5z M432.4,351.3c4-0.6,7.8-1.6,11.3-2.7l0.8-11.5h-12.3
	c0.1,0.7,0.2,1.5,0.2,2.4V351.3z M440.6,476c2,4,4.4,7.8,6.3,11.8h0.4c2,0,3.8,0.5,5.4,1.4c-3.8-7.2-7.6-14.3-11.6-21.4
	C440.8,470.5,440.6,473.3,440.6,476z M396.9,337.1c-0.9,3.7-1.9,7.5-2.9,11.3c0.8,0.3,1.6,0.7,2.5,1c9,3.2,20.5,3.9,31.5,2.7
	c0.6-0.1,1.2-0.1,1.8-0.2v-12.2c0-0.9,0.1-1.7,0.2-2.4h-2.4L396.9,337.1z M421.9,463.2c2.6-1.9,5.2-3.9,7.8-5.9v-0.9
	c-2.6,2-5.2,4-7.8,5.9V463.2z M341.019,170.065v14.1c7.6,0,15.7,2.4,23,0.2c1.9-0.6,1.8-4,0.8-5.7c1.1-0.4,1.8-1.7,2-2.8
	s-0.2-2.3-1.1-3c1.2,0,2.3-1.3,2.6-2.5c0.2-1.2-0.4-2.5-1.4-3.1c1-0.3,0.7-2.2,0-3s-1.8-1-2.8-1.1c-3.5-0.4-8.1,1.4-11.5,2.4
	c0-0.1,0-0.2,0-0.2c0-2.4,0.4-4.8,0-7.2s-2.1-4.7-4.5-5.1C348.919,159.365,345.919,166.165,341.019,170.065z"></path>
</svg>